<svg width="20" height="21" viewBox="0 0 20 21" fill="none" xmlns="http://www.w3.org/2000/svg">
<path d="M9.99984 12.1398C11.8382 12.1398 13.3332 10.6448 13.3332 8.80648C13.3332 6.96814 11.8382 5.47314 9.99984 5.47314C8.1615 5.47314 6.6665 6.96814 6.6665 8.80648C6.6665 10.6448 8.1615 12.1398 9.99984 12.1398ZM9.99984 7.13981C10.919 7.13981 11.6665 7.88731 11.6665 8.80648C11.6665 9.72564 10.919 10.4731 9.99984 10.4731C9.08067 10.4731 8.33317 9.72564 8.33317 8.80648C8.33317 7.88731 9.08067 7.13981 9.99984 7.13981Z" fill="#6366F1"/>
<path d="M9.5169 18.6516C9.6619 18.7549 9.83107 18.8066 10.0002 18.8066C10.1694 18.8066 10.3386 18.7549 10.4836 18.6516C10.7369 18.4724 16.6911 14.1732 16.6669 8.80656C16.6669 5.13073 13.6761 2.13989 10.0002 2.13989C6.3244 2.13989 3.33357 5.13073 3.33357 8.80239C3.3094 14.1732 9.26357 18.4724 9.5169 18.6516ZM10.0002 3.80656C12.7577 3.80656 15.0002 6.04906 15.0002 8.81073C15.0177 12.5091 11.3436 15.8299 10.0002 16.9191C8.65774 15.8291 4.98274 12.5074 5.00024 8.80656C5.00024 6.04906 7.24274 3.80656 10.0002 3.80656Z" fill="#6366F1"/>
</svg>
