<svg width="20" height="20" viewBox="0 0 20 20" fill="none" xmlns="http://www.w3.org/2000/svg">
<path d="M9.85792 1.68457C5.32825 1.68457 1.64307 5.34251 1.64307 9.83869C1.64307 14.3349 5.32825 17.9928 9.85792 17.9928C14.3876 17.9928 18.0728 14.3349 18.0728 9.83869C18.0728 5.34251 14.3876 1.68457 9.85792 1.68457ZM9.85792 16.362C6.23435 16.362 3.28604 13.4355 3.28604 9.83869C3.28604 6.24191 6.23435 3.31539 9.85792 3.31539C13.4815 3.31539 16.4298 6.24191 16.4298 9.83869C16.4298 13.4355 13.4815 16.362 9.85792 16.362Z" fill="#6366F1"/>
<path d="M10.6791 5.76147H9.03613V10.1761L11.7413 12.8613L12.9029 11.7083L10.6791 9.50096V5.76147Z" fill="#6366F1"/>
</svg>
