<svg width="20" height="21" viewBox="0 0 20 21" fill="none" xmlns="http://www.w3.org/2000/svg">
<path d="M13.805 18.9886C13.8092 18.9886 13.8242 18.9886 13.8283 18.9886C14.2683 18.9886 14.6842 18.8153 14.9992 18.5003L17.2592 16.2403C17.585 15.9144 17.585 15.3878 17.2592 15.0619L13.9259 11.7286C13.6 11.4028 13.0733 11.4028 12.7475 11.7286L11.4192 13.0569C10.8034 12.8736 9.65418 12.4569 8.92585 11.7286C8.19752 11.0003 7.78085 9.85109 7.59752 9.23525L8.92585 7.90692C9.25168 7.58109 9.25168 7.05442 8.92585 6.72859L5.59252 3.39525C5.28002 3.08275 4.72668 3.08275 4.41418 3.39525L2.15502 5.65525C1.83835 5.97192 1.66002 6.40692 1.66668 6.85109C1.68585 8.03775 2.00002 12.1594 5.24835 15.4078C8.49668 18.6561 12.6183 18.9694 13.805 18.9886ZM5.00418 5.16275L7.15918 7.31775L6.08168 8.39525C5.88252 8.59359 5.79752 8.88025 5.85585 9.15525C5.87585 9.25109 6.36502 11.5236 7.74835 12.9069C9.13168 14.2903 11.4042 14.7794 11.5 14.7994C11.7775 14.8578 12.0617 14.7728 12.26 14.5736L13.3375 13.4961L15.4925 15.6511L13.8208 17.3219C12.7808 17.3044 9.22252 17.0253 6.42668 14.2286C3.62168 11.4236 3.35002 7.85275 3.33335 6.83359L5.00418 5.16275ZM16.6659 9.82192H18.3325C18.3325 5.54692 15.105 2.32275 10.8242 2.32275V3.98942C14.2092 3.98942 16.6659 6.44192 16.6659 9.82192Z" fill="#6366F1"/>
<path d="M10.8325 7.32267C12.585 7.32267 13.3325 8.07017 13.3325 9.82267H14.9992C14.9992 7.13517 13.52 5.65601 10.8325 5.65601V7.32267V7.32267Z" fill="#6366F1"/>
</svg>
