<svg width="18" height="12" viewBox="0 0 18 12" fill="none" xmlns="http://www.w3.org/2000/svg">
<path d="M16.994 2.00259C16.8023 1.28759 16.2398 0.723421 15.5256 0.530921C14.2206 0.172588 8.99979 0.166754 8.99979 0.166754C8.99979 0.166754 3.77979 0.160921 2.47395 0.503421C1.77395 0.694254 1.19562 1.27092 1.00229 1.98509C0.65812 3.29009 0.654786 5.99675 0.654786 5.99675C0.654786 5.99675 0.651453 8.71675 0.99312 10.0084C1.18479 10.7226 1.74729 11.2868 2.46229 11.4793C3.78062 11.8376 8.98729 11.8434 8.98729 11.8434C8.98729 11.8434 14.2081 11.8493 15.5131 11.5076C16.2265 11.3159 16.7915 10.7526 16.9856 10.0384C17.3306 8.73425 17.3331 6.02842 17.3331 6.02842C17.3331 6.02842 17.3498 3.30759 16.994 2.00259ZM7.32979 8.50425L7.33395 3.50425L11.6731 6.00842L7.32979 8.50425Z" fill="#33354D"/>
</svg>
